%TF.GenerationSoftware,KiCad,Pcbnew,9.0.1*%
%TF.CreationDate,2025-04-04T16:59:33+13:00*%
%TF.ProjectId,Auckland-LED-Train-Map,4175636b-6c61-46e6-942d-4c45442d5472,rev?*%
%TF.SameCoordinates,Original*%
%TF.FileFunction,Legend,Bot*%
%TF.FilePolarity,Positive*%
%FSLAX46Y46*%
G04 Gerber Fmt 4.6, Leading zero omitted, Abs format (unit mm)*
G04 Created by KiCad (PCBNEW 9.0.1) date 2025-04-04 16:59:33*
%MOMM*%
%LPD*%
G01*
G04 APERTURE LIST*
%ADD10C,0.150000*%
G04 APERTURE END LIST*
D10*
G36*
X298857815Y-29528538D02*
G01*
X298696615Y-29528538D01*
X298696615Y-30038322D01*
X298698969Y-30105480D01*
X298705174Y-30155637D01*
X298714103Y-30192146D01*
X298734062Y-30236035D01*
X298762244Y-30273407D01*
X298799343Y-30305084D01*
X298842500Y-30327805D01*
X298895958Y-30342370D01*
X298962204Y-30347631D01*
X299021163Y-30342952D01*
X299070080Y-30329839D01*
X299110798Y-30309133D01*
X299144703Y-30280904D01*
X299171349Y-30245920D01*
X299191344Y-30202826D01*
X299204315Y-30149913D01*
X299209183Y-30085021D01*
X299056726Y-30069390D01*
X299052567Y-30115640D01*
X299045441Y-30146811D01*
X299036503Y-30166842D01*
X299015985Y-30190857D01*
X298989999Y-30205070D01*
X298956733Y-30210073D01*
X298922127Y-30206112D01*
X298897508Y-30195513D01*
X298880237Y-30179006D01*
X298869464Y-30156414D01*
X298861223Y-30116118D01*
X298857815Y-30049850D01*
X298857815Y-29528538D01*
G37*
G36*
X298520418Y-30332000D02*
G01*
X298520418Y-29537917D01*
X298358632Y-29537917D01*
X298358632Y-30197568D01*
X297956412Y-30197568D01*
X297956412Y-30332000D01*
X298520418Y-30332000D01*
G37*
G36*
X297328269Y-30035000D02*
G01*
X297171416Y-30085021D01*
X297193796Y-30149833D01*
X297221437Y-30202968D01*
X297253960Y-30246125D01*
X297291388Y-30280611D01*
X297334638Y-30307801D01*
X297383803Y-30327699D01*
X297439910Y-30340143D01*
X297504221Y-30344505D01*
X297567345Y-30339911D01*
X297624244Y-30326597D01*
X297675923Y-30304915D01*
X297723185Y-30274740D01*
X297766587Y-30235475D01*
X297802369Y-30190474D01*
X297830668Y-30139196D01*
X297851563Y-30080731D01*
X297864701Y-30013911D01*
X297869315Y-29937352D01*
X297864592Y-29855893D01*
X297851217Y-29785565D01*
X297830092Y-29724783D01*
X297801693Y-29672192D01*
X297766050Y-29626724D01*
X297722507Y-29587168D01*
X297674351Y-29556582D01*
X297620934Y-29534458D01*
X297561333Y-29520780D01*
X297494403Y-29516033D01*
X297421828Y-29521886D01*
X297358888Y-29538612D01*
X297303897Y-29565566D01*
X297255582Y-29602935D01*
X297223595Y-29640132D01*
X297196130Y-29688556D01*
X297173614Y-29750506D01*
X297333740Y-29788022D01*
X297346995Y-29748658D01*
X297366714Y-29716253D01*
X297393042Y-29689690D01*
X297424762Y-29669866D01*
X297460897Y-29657786D01*
X297502609Y-29653591D01*
X297545916Y-29657772D01*
X297583774Y-29669833D01*
X297617289Y-29689619D01*
X297647201Y-29717729D01*
X297669415Y-29750727D01*
X297686757Y-29794446D01*
X297698346Y-29851572D01*
X297702644Y-29925335D01*
X297698313Y-30004137D01*
X297686736Y-30064164D01*
X297669614Y-30109175D01*
X297647983Y-30142321D01*
X297618426Y-30170731D01*
X297585430Y-30190652D01*
X297548279Y-30202759D01*
X297505882Y-30206947D01*
X297464477Y-30202239D01*
X297427885Y-30188497D01*
X297394947Y-30165475D01*
X297368485Y-30134929D01*
X297346041Y-30092465D01*
X297328269Y-30035000D01*
G37*
G36*
X296743649Y-29528538D02*
G01*
X296582449Y-29528538D01*
X296582449Y-30038322D01*
X296584803Y-30105480D01*
X296591008Y-30155637D01*
X296599937Y-30192146D01*
X296619896Y-30236035D01*
X296648078Y-30273407D01*
X296685177Y-30305084D01*
X296728334Y-30327805D01*
X296781791Y-30342370D01*
X296848038Y-30347631D01*
X296906997Y-30342952D01*
X296955914Y-30329839D01*
X296996632Y-30309133D01*
X297030537Y-30280904D01*
X297057183Y-30245920D01*
X297077178Y-30202826D01*
X297090149Y-30149913D01*
X297095017Y-30085021D01*
X296942560Y-30069390D01*
X296938401Y-30115640D01*
X296931275Y-30146811D01*
X296922337Y-30166842D01*
X296901819Y-30190857D01*
X296875833Y-30205070D01*
X296842567Y-30210073D01*
X296807961Y-30206112D01*
X296783342Y-30195513D01*
X296766071Y-30179006D01*
X296755298Y-30156414D01*
X296747056Y-30116118D01*
X296743649Y-30049850D01*
X296743649Y-29528538D01*
G37*
G36*
X296406252Y-30332000D02*
G01*
X296406252Y-29537917D01*
X296244465Y-29537917D01*
X296244465Y-30197568D01*
X295842246Y-30197568D01*
X295842246Y-30332000D01*
X296406252Y-30332000D01*
G37*
G36*
X295214103Y-30035000D02*
G01*
X295057250Y-30085021D01*
X295079630Y-30149833D01*
X295107271Y-30202968D01*
X295139794Y-30246125D01*
X295177222Y-30280611D01*
X295220472Y-30307801D01*
X295269637Y-30327699D01*
X295325744Y-30340143D01*
X295390055Y-30344505D01*
X295453179Y-30339911D01*
X295510078Y-30326597D01*
X295561757Y-30304915D01*
X295609019Y-30274740D01*
X295652421Y-30235475D01*
X295688203Y-30190474D01*
X295716502Y-30139196D01*
X295737396Y-30080731D01*
X295750535Y-30013911D01*
X295755149Y-29937352D01*
X295750425Y-29855893D01*
X295737051Y-29785565D01*
X295715926Y-29724783D01*
X295687527Y-29672192D01*
X295651883Y-29626724D01*
X295608341Y-29587168D01*
X295560185Y-29556582D01*
X295506768Y-29534458D01*
X295447167Y-29520780D01*
X295380237Y-29516033D01*
X295307662Y-29521886D01*
X295244722Y-29538612D01*
X295189730Y-29565566D01*
X295141416Y-29602935D01*
X295109429Y-29640132D01*
X295081963Y-29688556D01*
X295059448Y-29750506D01*
X295219574Y-29788022D01*
X295232829Y-29748658D01*
X295252548Y-29716253D01*
X295278876Y-29689690D01*
X295310596Y-29669866D01*
X295346731Y-29657786D01*
X295388443Y-29653591D01*
X295431750Y-29657772D01*
X295469608Y-29669833D01*
X295503123Y-29689619D01*
X295533035Y-29717729D01*
X295555249Y-29750727D01*
X295572591Y-29794446D01*
X295584180Y-29851572D01*
X295588478Y-29925335D01*
X295584147Y-30004137D01*
X295572570Y-30064164D01*
X295555448Y-30109175D01*
X295533816Y-30142321D01*
X295504260Y-30170731D01*
X295471264Y-30190652D01*
X295434113Y-30202759D01*
X295391716Y-30206947D01*
X295350311Y-30202239D01*
X295313719Y-30188497D01*
X295280781Y-30165475D01*
X295254319Y-30134929D01*
X295231875Y-30092465D01*
X295214103Y-30035000D01*
G37*
G36*
X294629483Y-29528538D02*
G01*
X294468283Y-29528538D01*
X294468283Y-30038322D01*
X294470637Y-30105480D01*
X294476842Y-30155637D01*
X294485770Y-30192146D01*
X294505730Y-30236035D01*
X294533912Y-30273407D01*
X294571011Y-30305084D01*
X294614168Y-30327805D01*
X294667625Y-30342370D01*
X294733872Y-30347631D01*
X294792831Y-30342952D01*
X294841748Y-30329839D01*
X294882465Y-30309133D01*
X294916371Y-30280904D01*
X294943017Y-30245920D01*
X294963012Y-30202826D01*
X294975982Y-30149913D01*
X294980851Y-30085021D01*
X294828394Y-30069390D01*
X294824235Y-30115640D01*
X294817109Y-30146811D01*
X294808171Y-30166842D01*
X294787653Y-30190857D01*
X294761667Y-30205070D01*
X294728401Y-30210073D01*
X294693795Y-30206112D01*
X294669176Y-30195513D01*
X294651904Y-30179006D01*
X294641132Y-30156414D01*
X294632890Y-30116118D01*
X294629483Y-30049850D01*
X294629483Y-29528538D01*
G37*
G36*
X294292086Y-30332000D02*
G01*
X294292086Y-29537917D01*
X294130299Y-29537917D01*
X294130299Y-30197568D01*
X293728080Y-30197568D01*
X293728080Y-30332000D01*
X294292086Y-30332000D01*
G37*
G36*
X293099937Y-30035000D02*
G01*
X292943084Y-30085021D01*
X292965464Y-30149833D01*
X292993105Y-30202968D01*
X293025627Y-30246125D01*
X293063056Y-30280611D01*
X293106306Y-30307801D01*
X293155471Y-30327699D01*
X293211578Y-30340143D01*
X293275889Y-30344505D01*
X293339013Y-30339911D01*
X293395912Y-30326597D01*
X293447591Y-30304915D01*
X293494853Y-30274740D01*
X293538255Y-30235475D01*
X293574037Y-30190474D01*
X293602336Y-30139196D01*
X293623230Y-30080731D01*
X293636369Y-30013911D01*
X293640983Y-29937352D01*
X293636259Y-29855893D01*
X293622885Y-29785565D01*
X293601760Y-29724783D01*
X293573361Y-29672192D01*
X293537717Y-29626724D01*
X293494175Y-29587168D01*
X293446019Y-29556582D01*
X293392602Y-29534458D01*
X293333001Y-29520780D01*
X293266071Y-29516033D01*
X293193495Y-29521886D01*
X293130556Y-29538612D01*
X293075564Y-29565566D01*
X293027250Y-29602935D01*
X292995263Y-29640132D01*
X292967797Y-29688556D01*
X292945282Y-29750506D01*
X293105408Y-29788022D01*
X293118663Y-29748658D01*
X293138382Y-29716253D01*
X293164710Y-29689690D01*
X293196430Y-29669866D01*
X293232565Y-29657786D01*
X293274277Y-29653591D01*
X293317584Y-29657772D01*
X293355442Y-29669833D01*
X293388957Y-29689619D01*
X293418869Y-29717729D01*
X293441083Y-29750727D01*
X293458425Y-29794446D01*
X293470014Y-29851572D01*
X293474312Y-29925335D01*
X293469981Y-30004137D01*
X293458404Y-30064164D01*
X293441282Y-30109175D01*
X293419650Y-30142321D01*
X293390094Y-30170731D01*
X293357098Y-30190652D01*
X293319947Y-30202759D01*
X293277550Y-30206947D01*
X293236145Y-30202239D01*
X293199553Y-30188497D01*
X293166615Y-30165475D01*
X293140153Y-30134929D01*
X293117709Y-30092465D01*
X293099937Y-30035000D01*
G37*
G36*
X292515317Y-29528538D02*
G01*
X292354117Y-29528538D01*
X292354117Y-30038322D01*
X292356470Y-30105480D01*
X292362676Y-30155637D01*
X292371604Y-30192146D01*
X292391564Y-30236035D01*
X292419746Y-30273407D01*
X292456845Y-30305084D01*
X292500002Y-30327805D01*
X292553459Y-30342370D01*
X292619706Y-30347631D01*
X292678665Y-30342952D01*
X292727582Y-30329839D01*
X292768299Y-30309133D01*
X292802204Y-30280904D01*
X292828850Y-30245920D01*
X292848846Y-30202826D01*
X292861816Y-30149913D01*
X292866685Y-30085021D01*
X292714228Y-30069390D01*
X292710069Y-30115640D01*
X292702943Y-30146811D01*
X292694005Y-30166842D01*
X292673487Y-30190857D01*
X292647501Y-30205070D01*
X292614235Y-30210073D01*
X292579629Y-30206112D01*
X292555010Y-30195513D01*
X292537738Y-30179006D01*
X292526966Y-30156414D01*
X292518724Y-30116118D01*
X292515317Y-30049850D01*
X292515317Y-29528538D01*
G37*
G36*
X292177920Y-30332000D02*
G01*
X292177920Y-29537917D01*
X292016133Y-29537917D01*
X292016133Y-30197568D01*
X291613914Y-30197568D01*
X291613914Y-30332000D01*
X292177920Y-30332000D01*
G37*
G36*
X290985770Y-30035000D02*
G01*
X290828918Y-30085021D01*
X290851298Y-30149833D01*
X290878939Y-30202968D01*
X290911461Y-30246125D01*
X290948890Y-30280611D01*
X290992140Y-30307801D01*
X291041305Y-30327699D01*
X291097411Y-30340143D01*
X291161723Y-30344505D01*
X291224846Y-30339911D01*
X291281746Y-30326597D01*
X291333425Y-30304915D01*
X291380687Y-30274740D01*
X291424089Y-30235475D01*
X291459870Y-30190474D01*
X291488170Y-30139196D01*
X291509064Y-30080731D01*
X291522202Y-30013911D01*
X291526817Y-29937352D01*
X291522093Y-29855893D01*
X291508719Y-29785565D01*
X291487594Y-29724783D01*
X291459195Y-29672192D01*
X291423551Y-29626724D01*
X291380009Y-29587168D01*
X291331853Y-29556582D01*
X291278436Y-29534458D01*
X291218835Y-29520780D01*
X291151904Y-29516033D01*
X291079329Y-29521886D01*
X291016390Y-29538612D01*
X290961398Y-29565566D01*
X290913084Y-29602935D01*
X290881096Y-29640132D01*
X290853631Y-29688556D01*
X290831116Y-29750506D01*
X290991241Y-29788022D01*
X291004497Y-29748658D01*
X291024216Y-29716253D01*
X291050544Y-29689690D01*
X291082264Y-29669866D01*
X291118399Y-29657786D01*
X291160111Y-29653591D01*
X291203418Y-29657772D01*
X291241276Y-29669833D01*
X291274791Y-29689619D01*
X291304703Y-29717729D01*
X291326917Y-29750727D01*
X291344259Y-29794446D01*
X291355847Y-29851572D01*
X291360146Y-29925335D01*
X291355815Y-30004137D01*
X291344238Y-30064164D01*
X291327116Y-30109175D01*
X291305484Y-30142321D01*
X291275928Y-30170731D01*
X291242932Y-30190652D01*
X291205781Y-30202759D01*
X291163384Y-30206947D01*
X291121979Y-30202239D01*
X291085387Y-30188497D01*
X291052449Y-30165475D01*
X291025987Y-30134929D01*
X291003543Y-30092465D01*
X290985770Y-30035000D01*
G37*
%LPC*%
G36*
X-14811896Y-29379903D02*
G01*
X-14694535Y-29428515D01*
X-14588913Y-29499089D01*
X-14499089Y-29588913D01*
X-14428515Y-29694535D01*
X-14379903Y-29811896D01*
X-14355120Y-29936485D01*
X-14355120Y-30063515D01*
X-14379903Y-30188104D01*
X-14428515Y-30305465D01*
X-14499089Y-30411087D01*
X-14588913Y-30500911D01*
X-14694535Y-30571485D01*
X-14811896Y-30620097D01*
X-14936485Y-30644880D01*
X-15063515Y-30644880D01*
X-15188104Y-30620097D01*
X-15305465Y-30571485D01*
X-15411087Y-30500911D01*
X-15500911Y-30411087D01*
X-15571485Y-30305465D01*
X-15620097Y-30188104D01*
X-15644880Y-30063515D01*
X-15644880Y-29936485D01*
X-15620097Y-29811896D01*
X-15571485Y-29694535D01*
X-15500911Y-29588913D01*
X-15411087Y-29499089D01*
X-15305465Y-29428515D01*
X-15188104Y-29379903D01*
X-15063515Y-29355120D01*
X-14936485Y-29355120D01*
X-14811896Y-29379903D01*
G37*
G36*
X305188104Y-29379903D02*
G01*
X305305465Y-29428515D01*
X305411087Y-29499089D01*
X305500911Y-29588913D01*
X305571485Y-29694535D01*
X305620097Y-29811896D01*
X305644880Y-29936485D01*
X305644880Y-30063515D01*
X305620097Y-30188104D01*
X305571485Y-30305465D01*
X305500911Y-30411087D01*
X305411087Y-30500911D01*
X305305465Y-30571485D01*
X305188104Y-30620097D01*
X305063515Y-30644880D01*
X304936485Y-30644880D01*
X304811896Y-30620097D01*
X304694535Y-30571485D01*
X304588913Y-30500911D01*
X304499089Y-30411087D01*
X304428515Y-30305465D01*
X304379903Y-30188104D01*
X304355120Y-30063515D01*
X304355120Y-29936485D01*
X304379903Y-29811896D01*
X304428515Y-29694535D01*
X304499089Y-29588913D01*
X304588913Y-29499089D01*
X304694535Y-29428515D01*
X304811896Y-29379903D01*
X304936485Y-29355120D01*
X305063515Y-29355120D01*
X305188104Y-29379903D01*
G37*
G36*
X292233612Y14076629D02*
G01*
X292368199Y14049858D01*
X292494978Y13997345D01*
X292609075Y13921107D01*
X292706107Y13824075D01*
X292782345Y13709978D01*
X292834858Y13583199D01*
X292861629Y13448612D01*
X292861629Y13311388D01*
X292834858Y13176801D01*
X292782345Y13050022D01*
X292706107Y12935925D01*
X292609075Y12838893D01*
X292494978Y12762655D01*
X292368199Y12710142D01*
X292233612Y12683371D01*
X292165000Y12680000D01*
X292163398Y12680000D01*
X291166602Y12680000D01*
X291165000Y12680000D01*
X291096388Y12683371D01*
X290961801Y12710142D01*
X290835022Y12762655D01*
X290720925Y12838893D01*
X290623893Y12935925D01*
X290547655Y13050022D01*
X290495142Y13176801D01*
X290468371Y13311388D01*
X290468371Y13448612D01*
X290495142Y13583199D01*
X290547655Y13709978D01*
X290623893Y13824075D01*
X290720925Y13921107D01*
X290835022Y13997345D01*
X290961801Y14049858D01*
X291096388Y14076629D01*
X291165000Y14080000D01*
X292165000Y14080000D01*
X292233612Y14076629D01*
G37*
G36*
X296333612Y14076629D02*
G01*
X296468199Y14049858D01*
X296594978Y13997345D01*
X296709075Y13921107D01*
X296806107Y13824075D01*
X296882345Y13709978D01*
X296934858Y13583199D01*
X296961629Y13448612D01*
X296961629Y13311388D01*
X296934858Y13176801D01*
X296882345Y13050022D01*
X296806107Y12935925D01*
X296709075Y12838893D01*
X296594978Y12762655D01*
X296468199Y12710142D01*
X296333612Y12683371D01*
X296265000Y12680000D01*
X296263398Y12680000D01*
X295466602Y12680000D01*
X295465000Y12680000D01*
X295396388Y12683371D01*
X295261801Y12710142D01*
X295135022Y12762655D01*
X295020925Y12838893D01*
X294923893Y12935925D01*
X294847655Y13050022D01*
X294795142Y13176801D01*
X294768371Y13311388D01*
X294768371Y13448612D01*
X294795142Y13583199D01*
X294847655Y13709978D01*
X294923893Y13824075D01*
X295020925Y13921107D01*
X295135022Y13997345D01*
X295261801Y14049858D01*
X295396388Y14076629D01*
X295465000Y14080000D01*
X296265000Y14080000D01*
X296333612Y14076629D01*
G37*
G36*
X292318939Y15143358D02*
G01*
X292398067Y15097674D01*
X292462674Y15033067D01*
X292508358Y14953939D01*
X292532006Y14865684D01*
X292532006Y14774316D01*
X292508358Y14686061D01*
X292462674Y14606933D01*
X292398067Y14542326D01*
X292318939Y14496642D01*
X292230684Y14472994D01*
X292139316Y14472994D01*
X292051061Y14496642D01*
X291971933Y14542326D01*
X291907326Y14606933D01*
X291861642Y14686061D01*
X291837994Y14774316D01*
X291837994Y14865684D01*
X291861642Y14953939D01*
X291907326Y15033067D01*
X291971933Y15097674D01*
X292051061Y15143358D01*
X292139316Y15167006D01*
X292230684Y15167006D01*
X292318939Y15143358D01*
G37*
G36*
X294599805Y15987164D02*
G01*
X294667628Y15948006D01*
X294723006Y15892628D01*
X294762164Y15824805D01*
X294782433Y15749158D01*
X294782433Y15670842D01*
X294762164Y15595195D01*
X294723006Y15527372D01*
X294667628Y15471994D01*
X294599805Y15432836D01*
X294524158Y15412567D01*
X294445842Y15412567D01*
X294370195Y15432836D01*
X294302372Y15471994D01*
X294246994Y15527372D01*
X294207836Y15595195D01*
X294187567Y15670842D01*
X294187567Y15749158D01*
X294207836Y15824805D01*
X294246994Y15892628D01*
X294302372Y15948006D01*
X294370195Y15987164D01*
X294445842Y16007433D01*
X294524158Y16007433D01*
X294599805Y15987164D01*
G37*
G36*
X296599805Y15987164D02*
G01*
X296667628Y15948006D01*
X296723006Y15892628D01*
X296762164Y15824805D01*
X296782433Y15749158D01*
X296782433Y15670842D01*
X296762164Y15595195D01*
X296723006Y15527372D01*
X296667628Y15471994D01*
X296599805Y15432836D01*
X296524158Y15412567D01*
X296445842Y15412567D01*
X296370195Y15432836D01*
X296302372Y15471994D01*
X296246994Y15527372D01*
X296207836Y15595195D01*
X296187567Y15670842D01*
X296187567Y15749158D01*
X296207836Y15824805D01*
X296246994Y15892628D01*
X296302372Y15948006D01*
X296370195Y15987164D01*
X296445842Y16007433D01*
X296524158Y16007433D01*
X296599805Y15987164D01*
G37*
G36*
X294599805Y19987164D02*
G01*
X294667628Y19948006D01*
X294723006Y19892628D01*
X294762164Y19824805D01*
X294782433Y19749158D01*
X294782433Y19670842D01*
X294762164Y19595195D01*
X294723006Y19527372D01*
X294667628Y19471994D01*
X294599805Y19432836D01*
X294524158Y19412567D01*
X294445842Y19412567D01*
X294370195Y19432836D01*
X294302372Y19471994D01*
X294246994Y19527372D01*
X294207836Y19595195D01*
X294187567Y19670842D01*
X294187567Y19749158D01*
X294207836Y19824805D01*
X294246994Y19892628D01*
X294302372Y19948006D01*
X294370195Y19987164D01*
X294445842Y20007433D01*
X294524158Y20007433D01*
X294599805Y19987164D01*
G37*
G36*
X296599805Y19987164D02*
G01*
X296667628Y19948006D01*
X296723006Y19892628D01*
X296762164Y19824805D01*
X296782433Y19749158D01*
X296782433Y19670842D01*
X296762164Y19595195D01*
X296723006Y19527372D01*
X296667628Y19471994D01*
X296599805Y19432836D01*
X296524158Y19412567D01*
X296445842Y19412567D01*
X296370195Y19432836D01*
X296302372Y19471994D01*
X296246994Y19527372D01*
X296207836Y19595195D01*
X296187567Y19670842D01*
X296187567Y19749158D01*
X296207836Y19824805D01*
X296246994Y19892628D01*
X296302372Y19948006D01*
X296370195Y19987164D01*
X296445842Y20007433D01*
X296524158Y20007433D01*
X296599805Y19987164D01*
G37*
G36*
X292318939Y20923358D02*
G01*
X292398067Y20877674D01*
X292462674Y20813067D01*
X292508358Y20733939D01*
X292532006Y20645684D01*
X292532006Y20554316D01*
X292508358Y20466061D01*
X292462674Y20386933D01*
X292398067Y20322326D01*
X292318939Y20276642D01*
X292230684Y20252994D01*
X292139316Y20252994D01*
X292051061Y20276642D01*
X291971933Y20322326D01*
X291907326Y20386933D01*
X291861642Y20466061D01*
X291837994Y20554316D01*
X291837994Y20645684D01*
X291861642Y20733939D01*
X291907326Y20813067D01*
X291971933Y20877674D01*
X292051061Y20923358D01*
X292139316Y20947006D01*
X292230684Y20947006D01*
X292318939Y20923358D01*
G37*
G36*
X292233612Y22736629D02*
G01*
X292368199Y22709858D01*
X292494978Y22657345D01*
X292609075Y22581107D01*
X292706107Y22484075D01*
X292782345Y22369978D01*
X292834858Y22243199D01*
X292861629Y22108612D01*
X292861629Y21971388D01*
X292834858Y21836801D01*
X292782345Y21710022D01*
X292706107Y21595925D01*
X292609075Y21498893D01*
X292494978Y21422655D01*
X292368199Y21370142D01*
X292233612Y21343371D01*
X292165000Y21340000D01*
X292163398Y21340000D01*
X291166602Y21340000D01*
X291165000Y21340000D01*
X291096388Y21343371D01*
X290961801Y21370142D01*
X290835022Y21422655D01*
X290720925Y21498893D01*
X290623893Y21595925D01*
X290547655Y21710022D01*
X290495142Y21836801D01*
X290468371Y21971388D01*
X290468371Y22108612D01*
X290495142Y22243199D01*
X290547655Y22369978D01*
X290623893Y22484075D01*
X290720925Y22581107D01*
X290835022Y22657345D01*
X290961801Y22709858D01*
X291096388Y22736629D01*
X291165000Y22740000D01*
X292165000Y22740000D01*
X292233612Y22736629D01*
G37*
G36*
X296333612Y22736629D02*
G01*
X296468199Y22709858D01*
X296594978Y22657345D01*
X296709075Y22581107D01*
X296806107Y22484075D01*
X296882345Y22369978D01*
X296934858Y22243199D01*
X296961629Y22108612D01*
X296961629Y21971388D01*
X296934858Y21836801D01*
X296882345Y21710022D01*
X296806107Y21595925D01*
X296709075Y21498893D01*
X296594978Y21422655D01*
X296468199Y21370142D01*
X296333612Y21343371D01*
X296265000Y21340000D01*
X296263398Y21340000D01*
X295466602Y21340000D01*
X295465000Y21340000D01*
X295396388Y21343371D01*
X295261801Y21370142D01*
X295135022Y21422655D01*
X295020925Y21498893D01*
X294923893Y21595925D01*
X294847655Y21710022D01*
X294795142Y21836801D01*
X294768371Y21971388D01*
X294768371Y22108612D01*
X294795142Y22243199D01*
X294847655Y22369978D01*
X294923893Y22484075D01*
X295020925Y22581107D01*
X295135022Y22657345D01*
X295261801Y22709858D01*
X295396388Y22736629D01*
X295465000Y22740000D01*
X296265000Y22740000D01*
X296333612Y22736629D01*
G37*
G36*
X-14811896Y35620097D02*
G01*
X-14694535Y35571485D01*
X-14588913Y35500911D01*
X-14499089Y35411087D01*
X-14428515Y35305465D01*
X-14379903Y35188104D01*
X-14355120Y35063515D01*
X-14355120Y34936485D01*
X-14379903Y34811896D01*
X-14428515Y34694535D01*
X-14499089Y34588913D01*
X-14588913Y34499089D01*
X-14694535Y34428515D01*
X-14811896Y34379903D01*
X-14936485Y34355120D01*
X-15063515Y34355120D01*
X-15188104Y34379903D01*
X-15305465Y34428515D01*
X-15411087Y34499089D01*
X-15500911Y34588913D01*
X-15571485Y34694535D01*
X-15620097Y34811896D01*
X-15644880Y34936485D01*
X-15644880Y35063515D01*
X-15620097Y35188104D01*
X-15571485Y35305465D01*
X-15500911Y35411087D01*
X-15411087Y35500911D01*
X-15305465Y35571485D01*
X-15188104Y35620097D01*
X-15063515Y35644880D01*
X-14936485Y35644880D01*
X-14811896Y35620097D01*
G37*
G36*
X305188104Y35620097D02*
G01*
X305305465Y35571485D01*
X305411087Y35500911D01*
X305500911Y35411087D01*
X305571485Y35305465D01*
X305620097Y35188104D01*
X305644880Y35063515D01*
X305644880Y34936485D01*
X305620097Y34811896D01*
X305571485Y34694535D01*
X305500911Y34588913D01*
X305411087Y34499089D01*
X305305465Y34428515D01*
X305188104Y34379903D01*
X305063515Y34355120D01*
X304936485Y34355120D01*
X304811896Y34379903D01*
X304694535Y34428515D01*
X304588913Y34499089D01*
X304499089Y34588913D01*
X304428515Y34694535D01*
X304379903Y34811896D01*
X304355120Y34936485D01*
X304355120Y35063515D01*
X304379903Y35188104D01*
X304428515Y35305465D01*
X304499089Y35411087D01*
X304588913Y35500911D01*
X304694535Y35571485D01*
X304811896Y35620097D01*
X304936485Y35644880D01*
X305063515Y35644880D01*
X305188104Y35620097D01*
G37*
%LPD*%
M02*
