M48
; DRILL file {KiCad 9.0.1} date 2025-04-04T16:59:33+1300
; FORMAT={-:-/ absolute / inch / decimal}
; #@! TF.CreationDate,2025-04-04T16:59:33+13:00
; #@! TF.GenerationSoftware,Kicad,Pcbnew,9.0.1
; #@! TF.FileFunction,Plated,1,2,PTH
FMAT,2
INCH
; #@! TA.AperFunction,Plated,PTH,ViaDrill
T1C0.0118
; #@! TA.AperFunction,Plated,PTH,ComponentDrill
T2C0.0118
; #@! TA.AperFunction,Plated,PTH,ComponentDrill
T3C0.0197
%
G90
G05
T1
X0.0295Y0.0512
X0.1476Y0.0512
X0.2657Y0.0512
X0.3839Y0.0512
X0.502Y0.0512
X0.6201Y0.0512
X0.7382Y0.0512
X0.8563Y0.0512
X0.9744Y0.0512
X1.0925Y0.0512
X1.2106Y0.0512
X1.3287Y0.0512
X1.4469Y0.0512
X1.565Y0.0512
X1.6831Y0.0512
X1.8012Y0.0512
X1.9193Y0.0512
X2.0374Y0.0512
X2.1555Y0.0512
X2.2736Y0.0512
X2.3917Y0.0512
X2.5098Y0.0512
X2.628Y0.0512
X2.7461Y0.0512
X2.8642Y0.0512
X2.9823Y0.0512
X3.1004Y0.0512
X3.2185Y0.0512
X3.3366Y0.0512
X3.4547Y0.0512
X3.5728Y0.0512
X3.6909Y0.0512
X3.8091Y0.0512
X3.9272Y0.0512
X4.0453Y0.0512
X4.1634Y0.0512
X4.2815Y0.0512
X4.3996Y0.0512
X4.5177Y0.0512
X4.6358Y0.0512
X4.6575Y0.6791
X4.6575Y0.561
X4.6575Y0.4429
X4.6575Y0.3248
X4.6575Y0.2067
X4.6575Y0.0886
X4.6675Y0.7756
X4.7244Y0.8541
X4.7539Y0.0512
X4.813Y0.8937
X4.872Y0.0512
X4.9311Y0.8937
X4.9902Y0.0512
X5.0492Y0.8937
X5.1083Y0.0512
X5.1592Y0.887
X5.2242Y0.8268
X5.2264Y0.0512
X5.2638Y0.7382
X5.2638Y0.6201
X5.2638Y0.502
X5.2638Y0.3839
X5.2638Y0.2657
X5.2638Y0.1476
X5.3445Y0.9961
X5.3661Y-0.0295
X5.3661Y-0.1476
X5.3661Y-0.2657
X5.3661Y-0.3839
X5.4057Y-0.4724
X5.4626Y0.9961
X5.4842Y-0.5293
X5.5807Y0.9961
X5.5807Y-0.5394
X5.6988Y0.9961
X5.6988Y-0.5394
X5.8169Y0.9961
X5.8169Y-0.5394
X5.935Y0.9961
X5.935Y-0.5394
X6.0531Y0.9961
X6.0531Y-0.5394
X6.1713Y0.9961
X6.1877Y-0.5649
X6.2873Y-0.7086
X6.2894Y0.9961
X6.2894Y-0.5394
X6.311Y-0.8563
X6.3506Y-0.9449
X6.4075Y-0.5394
X6.4291Y0.9428
X6.4291Y-1.0018
X6.5235Y0.8268
X6.5256Y-0.5394
X6.5256Y-1.0118
X6.5472Y0.6791
X6.5472Y0.561
X6.5472Y0.4429
X6.5472Y0.3248
X6.5472Y0.2067
X6.5472Y0.0886
X6.5472Y-0.0295
X6.5472Y-0.1476
X6.5472Y-0.2657
X6.5472Y-0.3839
X6.5868Y-0.4724
X6.6437Y-1.0118
X6.6518Y-0.5327
X6.7618Y-0.5394
X6.7618Y-1.0118
X6.8799Y-0.5394
X6.8799Y-1.0118
X6.998Y-0.5394
X7.1161Y-0.5394
X7.2343Y-0.5394
X7.3524Y-0.5394
X7.4705Y-0.5394
X7.5886Y-0.5394
X7.7067Y-0.5394
X7.8248Y-0.5394
X7.9429Y-0.5394
X8.061Y-0.5394
X8.1791Y-0.5394
X8.2677Y-0.4998
X8.2972Y-0.5394
X8.3246Y-0.4213
X8.3346Y-0.2067
X8.3346Y-0.3248
X8.4154Y-0.5394
X8.5335Y-0.5394
X8.6516Y-0.5394
X8.7697Y-0.5394
X8.8878Y-0.5394
X9.0059Y-0.5394
X9.124Y-0.5394
X9.2421Y-0.5394
X9.3602Y-0.5394
X9.4783Y-0.5394
X9.5965Y-0.5394
X9.7146Y-0.5394
X9.8327Y-0.5394
X9.9508Y-0.5394
X10.0689Y-0.5394
X10.187Y-0.5394
X10.3051Y-0.5394
X10.4232Y-0.5394
X10.5413Y-0.5394
X10.6594Y-0.5394
X10.7776Y-0.5394
X10.81Y0.874
X10.812Y0.7736
X10.8494Y0.8937
X10.8494Y0.7362
X10.8494Y0.6988
X10.8888Y0.8937
X10.8957Y-0.5394
X10.9183Y0.8937
X10.9281Y0.7362
X10.9281Y0.6969
X10.9577Y0.8937
X10.9675Y0.7362
X10.997Y0.874
X10.997Y0.7657
X11.0138Y-0.5394
X11.1319Y-0.5394
X11.25Y-0.5394
X11.3681Y-0.5394
X11.4862Y-0.5394
X11.6043Y-0.5394
T2
X10.877Y0.5984
X10.877Y0.5591
X10.877Y0.5197
X10.9163Y0.5984
X10.9163Y0.5591
X10.9163Y0.5197
X10.9557Y0.5984
X10.9557Y0.5591
X10.9557Y0.5197
X11.5939Y0.776
X11.5939Y0.6185
X11.6726Y0.776
X11.6726Y0.6185
T3
G00X11.4612Y0.8677
M15
G01X11.5045Y0.8677
M16
G05
G00X11.4612Y0.5268
M15
G01X11.5045Y0.5268
M16
G05
G00X11.6325Y0.8677
M15
G01X11.664Y0.8677
M16
G05
G00X11.6325Y0.5268
M15
G01X11.664Y0.5268
M16
G05
M30
