0
SECTION
2
HEADER
9
$INSUNITS
70
4
9
$ACADVER
1
AC1014
9
$HANDSEED
5
FFFF
0
ENDSEC
0
SECTION
2
TABLES
0
TABLE
2
VPORT
5
8
100
AcDbSymbolTable
0
ENDTAB
0
TABLE
2
LTYPE
5
5
100
AcDbSymbolTable
0
LTYPE
5
14
100
AcDbSymbolTableRecord
100
AcDbLinetypeTableRecord
2
BYBLOCK
70
0
0
LTYPE
5
15
100
AcDbSymbolTableRecord
100
AcDbLinetypeTableRecord
2
BYLAYER
70
0
0
LTYPE
5
16
100
AcDbSymbolTableRecord
100
AcDbLinetypeTableRecord
2
DASHED
70
0
3
Dashed __ __ __ __ __ __ __ __ __ __ __ __ __ _
72
65
73
2
40
0.75
49
0.5
74
0
49
-0.25
74
0
0
ENDTAB
0
TABLE
2
LAYER
5
2
100
AcDbSymbolTable
70
2
0
LAYER
5
50
100
AcDbSymbolTableRecord
100
AcDbLayerTableRecord
2
0
70
0
62
7
6
CONTINUOUS
0
ENDTAB
0
TABLE
2
STYLE
5
3
100
AcDbSymbolTable
70
1
0
STYLE
5
11
100
AcDbSymbolTableRecord
100
AcDbTextStyleTableRecord
2
STANDARD
70
0
0
ENDTAB
0
TABLE
2
VIEW
5
6
100
AcDbSymbolTable
70
0
0
ENDTAB
0
TABLE
2
UCS
5
7
100
AcDbSymbolTable
70
0
0
ENDTAB
0
TABLE
2
APPID
5
9
100
AcDbSymbolTable
70
2
0
APPID
5
12
100
AcDbSymbolTableRecord
100
AcDbRegAppTableRecord
2
ACAD
70
0
0
ENDTAB
0
TABLE
2
DIMSTYLE
5
A
100
AcDbSymbolTable
70
1
0
ENDTAB
0
TABLE
2
BLOCK_RECORD
5
1
100
AcDbSymbolTable
70
1
0
BLOCK_RECORD
5
1F
100
AcDbSymbolTableRecord
100
AcDbBlockTableRecord
2
*MODEL_SPACE
0
BLOCK_RECORD
5
1B
100
AcDbSymbolTableRecord
100
AcDbBlockTableRecord
2
*PAPER_SPACE
0
ENDTAB
0
ENDSEC
0
SECTION
2
BLOCKS
0
BLOCK
5
20
100
AcDbEntity
100
AcDbBlockBegin
2
*MODEL_SPACE
0
ENDBLK
5
21
100
AcDbEntity
100
AcDbBlockEnd
0
BLOCK
5
1C
100
AcDbEntity
100
AcDbBlockBegin
2
*PAPER_SPACE
0
ENDBLK
5
1D
100
AcDbEntity
100
AcDbBlockEnd
0
ENDSEC
0
SECTION
2
ENTITIES
0
POINT
5
100
100
AcDbEntity
8
0
100
AcDbPoint
10
0
20
0
30
0
0
LINE
5
101
100
AcDbEntity
8
0
100
AcDbLine
10
0
20
0
30
0
11
25.579999999999998
21
0
31
0
0
LINE
5
102
100
AcDbEntity
8
0
100
AcDbLine
10
25.579999999999998
20
0
30
0
11
25.579999999999998
21
-1.21
31
0
0
LINE
5
103
100
AcDbEntity
8
0
100
AcDbLine
10
25.579999999999998
20
-1.21
30
0
11
9.1799999999999997
21
-1.21
31
0
0
LINE
5
104
100
AcDbEntity
8
0
100
AcDbLine
10
9.1799999999999997
20
-1.21
30
0
11
9.1799999999999997
21
-3.0100000000000007
31
0
0
LINE
5
105
100
AcDbEntity
8
0
100
AcDbLine
10
0
20
0
30
0
11
1.3532347130578254e-16
21
-2.21
31
0
0
LINE
5
106
100
AcDbEntity
8
0
100
AcDbLine
10
2.1800000000000002
20
-2.2099999999999991
30
0
11
7.9799999999999995
21
-2.2099999999999982
31
0
0
LINE
5
107
100
AcDbEntity
8
0
100
AcDbLine
10
7.9799999999999995
20
-2.2099999999999982
30
0
11
7.9799999999999995
21
-3.010000000000002
31
0
0
LINE
5
108
100
AcDbEntity
8
0
100
AcDbLine
10
7.9799999999999995
20
-3.010000000000002
30
0
11
7.2999998368322849
21
-3.0100000000000007
31
0
0
LINE
5
109
100
AcDbEntity
8
0
100
AcDbLine
10
7.2999998368322849
20
-3.0100000000000007
30
0
11
6.9799999999999995
21
-3.0100000000000007
31
0
0
LINE
5
110
100
AcDbEntity
8
0
100
AcDbLine
10
9.1799999999999997
20
-3.0100000000000007
30
0
11
10.18
21
-3.0100000000000007
31
0
0
LINE
5
111
100
AcDbEntity
8
0
100
AcDbLine
10
6.9799999999999995
20
-3.0100000000000007
30
0
11
6.9799999999999995
21
-4.2200000000000006
31
0
0
LINE
5
112
100
AcDbEntity
8
0
100
AcDbLine
10
6.9799999999999995
20
-4.2200000000000006
30
0
11
10.18
21
-4.2200000000000006
31
0
0
LINE
5
113
100
AcDbEntity
8
0
100
AcDbLine
10
10.18
20
-4.2200000000000006
30
0
11
10.18
21
-3.0100000000000007
31
0
0
LINE
5
114
100
AcDbEntity
8
0
100
AcDbLine
10
2.1800000000000002
20
-2.2099999999999991
30
0
11
2.1800000000000002
21
-4.8799999999999999
31
0
0
LINE
5
115
100
AcDbEntity
8
0
100
AcDbLine
10
2.1800000000000002
20
-4.8799999999999999
30
0
11
10.18
21
-4.8800000000000052
31
0
0
LINE
5
116
100
AcDbEntity
8
0
100
AcDbLine
10
10.18
20
-4.8800000000000052
30
0
11
10.18
21
-6.9100000000000001
31
0
0
LINE
5
117
100
AcDbEntity
8
0
100
AcDbLine
10
9.1799999999999997
20
-6.9100000000000001
30
0
11
9.1799999999999997
21
-6.1699999999999999
31
0
0
LINE
5
118
100
AcDbEntity
8
0
100
AcDbLine
10
9.1799999999999997
20
-6.1699999999999999
30
0
11
7.9800000000000004
21
-6.169999999999999
31
0
0
LINE
5
119
100
AcDbEntity
8
0
100
AcDbLine
10
7.9800000000000004
20
-6.169999999999999
30
0
11
7.9799999999999995
21
-6.9099999999999993
31
0
0
LINE
5
120
100
AcDbEntity
8
0
100
AcDbLine
10
7.9799999999999995
20
-6.9099999999999993
30
0
11
6.9799999999999995
21
-6.9099999999999993
31
0
0
LINE
5
121
100
AcDbEntity
8
0
100
AcDbLine
10
6.9799999999999995
20
-6.9099999999999993
30
0
11
6.9799999999999995
21
-6.1699999999999999
31
0
0
LINE
5
122
100
AcDbEntity
8
0
100
AcDbLine
10
6.9799999999999995
20
-6.1699999999999999
30
0
11
-1.0715659492539341e-16
21
-6.1699999999999999
31
0
0
LINE
5
123
100
AcDbEntity
8
0
100
AcDbLine
10
-1.0715659492539341e-16
20
-6.1699999999999999
30
0
11
1.3532347130578254e-16
21
-2.21
31
0
0
LINE
5
124
100
AcDbEntity
8
0
100
AcDbLine
10
9.1799999999999997
20
-6.9100000000000001
30
0
11
10.18
21
-6.9100000000000001
31
0
0
LINE
5
125
100
AcDbEntity
8
0
100
AcDbLine
10
10.629999999999999
20
-7.410000000000001
30
0
11
10.629999999999997
21
-4.8800000000000052
31
0
0
LINE
5
126
100
AcDbEntity
8
0
100
AcDbLine
10
10.629999999999999
20
-7.410000000000001
30
0
11
11.09
21
-7.410000000000001
31
0
0
LINE
5
127
100
AcDbEntity
8
0
100
AcDbLine
10
11.09
20
-7.410000000000001
30
0
11
11.089999999999998
21
-4.7381036800507488
31
0
0
LINE
5
128
100
AcDbEntity
8
0
100
AcDbLine
10
-5
20
0.60999999999999666
30
0
11
35.579999999999998
21
0.60999999999999921
31
0
0
LINE
5
129
100
AcDbEntity
8
0
100
AcDbLine
10
10.629999999999997
20
-4.8800000000000052
30
0
11
10.18
21
-4.2200000000000006
31
0
0
LINE
5
130
100
AcDbEntity
8
0
100
AcDbLine
10
11.089999999999998
20
-4.7381036800507488
30
0
11
10.179999999999998
21
-3.4034370133840812
31
0
0
LINE
5
131
100
AcDbEntity
8
0
100
AcDbLine
10
9.1799999999999997
20
-6.9100000000000001
30
0
11
7.9799999999999995
21
-6.9099999999999993
31
0
0
LWPOLYLINE
5
132
100
AcDbEntity
8
0
100
AcDbPolyline
90
4
70
1
43
0.0
10
10.18
20
-6.9100000000000001
10
10.18
20
-7.410000000000001
10
-5.0000000000000018
20
-7.410000000000001
10
-5.0000000000000018
20
-6.9099999999999993
0
LWPOLYLINE
5
133
100
AcDbEntity
8
0
100
AcDbPolyline
90
4
70
1
43
0.0
10
11.539999999999999
20
-6.9099999999999984
10
11.539999999999999
20
-7.410000000000001
10
35.579999999999998
20
-7.410000000000001
10
35.579999999999998
20
-6.9100000000000019
0
ENDSEC
0
SECTION
2
OBJECTS
0
DICTIONARY
5
C
100
AcDbDictionary
3
ACAD_GROUP
350
D
3
ACAD_MLINESTYLE
350
17
0
DICTIONARY
5
D
100
AcDbDictionary
0
DICTIONARY
5
1A
330
C
100
AcDbDictionary
0
DICTIONARY
5
17
100
AcDbDictionary
0
ENDSEC
0
EOF
